# xmcd CD Database Entry
#
# Track frame offsets:
# 150
# 18638
# 40068
# 58688
#
# Disc length: 1065 seconds
#
# Revision: 2
# Processed by: cddbd v1.5PL3 Copyright (c) Steve Scherf et al.
# Submitted via: tcd 2.0b
#
DISCID=2d042704
DTITLE=HUTENMA KAORI - KONOHOSHINIUMARETE
DYEAR=1900
DGENRE=
TTITLE0=konohoshiniumarete
TTITLE1=daijyoubudayo
TTITLE2=konohoshiniumarete(karaoke)
TTITLE3=daijyoubudayo(karaoke)
EXTD=
EXTT0=
EXTT1=
EXTT2=
EXTT3=
PLAYORDER=
